<svg xmlns="http://www.w3.org/2000/svg" xml:space="preserve" style="fill-rule:evenodd;clip-rule:evenodd;stroke-linejoin:round;stroke-miterlimit:2" viewBox="0 0 512 512"><rect width="100%" height="100%" fill="#fff"/><path d="M12 5.064A9.722 9.722 0 0 0 5.999 3a9.71 9.71 0 0 0-3.249.555.75.75 0 0 0-.5.707v14.25a.749.749 0 0 0 1 .707 8.25 8.25 0 0 1 2.749-.469H6a8.22 8.22 0 0 1 5.5 2.101l.024.021.03.023.03.021.032.02.007.004.025.014.007.004.013.007.012.006.008.003.012.005.022.01.01.004.01.003.015.006.008.002.012.004.014.004.008.002.014.004.013.004.007.001.016.004.037.006.037.005.038.003.039.001.039-.001.038-.003.037-.005.025-.004.012-.002.023-.005.013-.004.015-.004.021-.006.012-.004.009-.003.014-.005.01-.004.011-.003.013-.006.008-.004.012-.005.013-.006.007-.003.014-.007.011-.007.021-.011.007-.004.025-.016.006-.004.025-.017.006-.004.029-.024.025-.021a8.22 8.22 0 0 1 5.498-2.1h.002a8.25 8.25 0 0 1 2.749.469.749.749 0 0 0 1-.707V4.262a.75.75 0 0 0-.5-.707A9.712 9.712 0 0 0 18 3a9.72 9.72 0 0 0-6 2.064Zm-.75 1.322A8.215 8.215 0 0 0 6.001 4.5H6c-.78 0-1.535.108-2.25.31v12.701A9.723 9.723 0 0 1 6 17.25c1.933 0 3.735.563 5.25 1.533V6.386Zm1.5 12.397A9.722 9.722 0 0 1 18 17.25a9.723 9.723 0 0 1 2.25.261V4.81A8.266 8.266 0 0 0 18 4.5h-.001a8.215 8.215 0 0 0-5.249 1.886v12.397Z" style="fill:#833e2d" transform="translate(86 85.703) scale(14.1667)"/></svg>
